<svg width="24" height="24" viewBox="0 0 24 24" fill="none" xmlns="http://www.w3.org/2000/svg">
<path d="M22 12V19C22 20.8856 22 21.8284 21.4142 22.4142C20.8284 23 19.8856 23 18 23H5.05556C5.00397 23 4.97818 23 4.95637 22.9997C3.33366 22.9761 2.02392 21.6663 2.00032 20.0436C2 20.0218 2 19.996 2 19.9444V19.9444C2 19.8929 2 19.8671 2.00032 19.8453C2.02392 18.2226 3.33366 16.9128 4.95637 16.8892C4.97818 16.8889 5.00397 16.8889 5.05556 16.8889H18C19.8856 16.8889 20.8284 16.8889 21.4142 16.3031C22 15.7173 22 14.7745 22 12.8889V5C22 3.11438 22 2.17157 21.4142 1.58579C20.8284 1 19.8856 1 18 1H6C4.11438 1 3.17157 1 2.58579 1.58579C2 2.17157 2 3.11438 2 5V19.9444" stroke="#FAFAFA" stroke-width="2"/>
<path d="M9 9L10.1679 10.7519C10.5638 11.3457 11.4362 11.3457 11.8321 10.7519L15 6" stroke="#FAFAFA" stroke-width="2" stroke-linecap="round"/>
</svg>
