<svg width="99" height="96" viewBox="0 0 99 96" fill="none" xmlns="http://www.w3.org/2000/svg">
<path d="M10.3741 95.6789C4.64462 95.6789 0 91.0539 0 85.3487L-1.23668e-06 10.3303C-1.23668e-06 4.62503 4.64463 1.23146e-06 10.3741 1.23146e-06H15.6233V7.87166H9.58563L9.58563 87.8073H15.6233V95.6789H10.3741Z" fill="#FF7F00"/>
<path d="M50.1563 46.4155C47.3723 46.4155 45.0043 46.0635 43.0523 45.3595C41.1323 44.6235 39.6763 43.4235 38.6843 41.7595C37.7243 40.0955 37.2443 37.8395 37.2443 34.9915V13.1995H44.8283V35.2795C44.8283 36.9755 45.2763 38.1915 46.1723 38.9275C47.0683 39.6635 48.3963 40.0315 50.1563 40.0315C51.9483 40.0315 53.2923 39.6635 54.1883 38.9275C55.0843 38.1915 55.5323 36.9755 55.5323 35.2795V13.1995H63.1163V34.8955C63.1163 37.7115 62.6203 39.9675 61.6283 41.6635C60.6683 43.3595 59.2123 44.5755 57.2603 45.3115C55.3403 46.0475 52.9723 46.4155 50.1563 46.4155ZM68.28 45.8395V13.1995H75.864V45.8395H68.28ZM35.7657 86.4155C32.9817 86.4155 30.6137 86.0635 28.6617 85.3595C26.7417 84.6235 25.2857 83.4235 24.2937 81.7595C23.3337 80.0955 22.8537 77.8395 22.8537 74.9915V53.1995H30.4377V75.2795C30.4377 76.9755 30.8857 78.1915 31.7817 78.9275C32.6777 79.6635 34.0057 80.0315 35.7657 80.0315C37.5577 80.0315 38.9017 79.6635 39.7977 78.9275C40.6937 78.1915 41.1417 76.9755 41.1417 75.2795V53.1995H48.7257V74.8955C48.7257 77.7115 48.2297 79.9675 47.2377 81.6635C46.2777 83.3595 44.8217 84.5755 42.8697 85.3115C40.9497 86.0475 38.5817 86.4155 35.7657 86.4155ZM51.4414 85.8395L59.9374 70.0475L51.4414 53.1995H59.3614L64.8814 64.5755L70.8814 53.1995H78.5134L69.9694 69.2315L78.2734 85.8395H70.3054L64.8334 74.7995L59.2654 85.8395H51.4414Z" fill="white"/>
<path d="M87.8726 95.6789C93.6021 95.6789 98.2467 91.0539 98.2467 85.3487L98.2467 10.3303C98.2467 4.62503 93.6021 1.23146e-06 87.8726 1.23146e-06H82.6234V7.87166H88.6611L88.6611 87.8073H82.6234V95.6789H87.8726Z" fill="#FF7F00"/>
</svg>
