<svg width="25" height="24" viewBox="0 0 25 24" fill="none" xmlns="http://www.w3.org/2000/svg">
<path d="M21.8333 10.0606C21.8333 16.8485 12.5 22.6666 12.5 22.6666C12.5 22.6666 3.16666 16.8485 3.16666 10.0606C3.16666 7.74597 4.14999 5.52615 5.90033 3.88947C7.65067 2.25279 10.0246 1.33331 12.5 1.33331C14.9753 1.33331 17.3493 2.25279 19.0997 3.88947C20.85 5.52615 21.8333 7.74597 21.8333 10.0606Z" stroke="white" stroke-width="2" stroke-linecap="round" stroke-linejoin="round"/>
<path d="M12.5 13C14.1569 13 15.5 11.6569 15.5 10C15.5 8.34315 14.1569 7 12.5 7C10.8431 7 9.5 8.34315 9.5 10C9.5 11.6569 10.8431 13 12.5 13Z" stroke="white" stroke-width="2" stroke-linecap="round" stroke-linejoin="round"/>
</svg>
