<svg width="25" height="24" viewBox="0 0 25 24" fill="none" xmlns="http://www.w3.org/2000/svg">
<path d="M1.19238 3.65294V9.98794M1.19238 9.98794H7.19238M1.19238 9.98794L5.83238 5.38451C6.90713 4.24919 8.23676 3.41982 9.69719 2.97381C11.1576 2.52779 12.7013 2.47965 14.1841 2.83389C15.6669 3.18813 17.0406 3.9332 18.1769 4.99957C19.3133 6.06595 20.1752 7.41887 20.6824 8.93211M23.1924 20.5463V14.2113M23.1924 14.2113H17.1924M23.1924 14.2113L18.5524 18.8147C17.4776 19.95 16.148 20.7794 14.6876 21.2254C13.2271 21.6714 11.6835 21.7196 10.2007 21.3653C8.71785 21.0111 7.34418 20.266 6.20785 19.1996C5.07152 18.1333 4.20955 16.7803 3.70238 15.2671" stroke="#FAFAFA" stroke-width="2" stroke-linecap="round" stroke-linejoin="round"/>
</svg>
