<svg width="100" height="30" viewBox="0 0 100 30" fill="none" xmlns="http://www.w3.org/2000/svg">
<path d="M64.2858 28.5714L71.4287 28.5714L78.5715 14.2857L71.4287 -1.65417e-05L64.2858 -1.59172e-05L71.4287 14.2857L64.2858 28.5714Z" fill="#303030"/>
<path d="M11.5286 29.6571C9.04286 29.6571 6.92857 29.3429 5.18571 28.7143C3.47143 28.0571 2.17143 26.9857 1.28571 25.5C0.428571 24.0143 0 22 0 19.4571V0H6.77143V19.7143C6.77143 21.2286 7.17143 22.3143 7.97143 22.9714C8.77143 23.6286 9.95714 23.9571 11.5286 23.9571C13.1286 23.9571 14.3286 23.6286 15.1286 22.9714C15.9286 22.3143 16.3286 21.2286 16.3286 19.7143V0H23.1V19.3714C23.1 21.8857 22.6571 23.9 21.7714 25.4143C20.9143 26.9286 19.6143 28.0143 17.8714 28.6714C16.1571 29.3286 14.0429 29.6571 11.5286 29.6571Z" fill="#303030"/>
<path d="M27.7105 29.1429V0H34.4819V29.1429H27.7105Z" fill="#303030"/>
<path d="M50.7027 29.6571C48.217 29.6571 46.1027 29.3429 44.3598 28.7143C42.6455 28.0571 41.3455 26.9857 40.4598 25.5C39.6027 24.0143 39.1741 22 39.1741 19.4571V0H45.9455V19.7143C45.9455 21.2286 46.3455 22.3143 47.1455 22.9714C47.9455 23.6286 49.1312 23.9571 50.7027 23.9571C52.3027 23.9571 53.5027 23.6286 54.3027 22.9714C55.1027 22.3143 55.5027 21.2286 55.5027 19.7143V0H62.2741V19.3714C62.2741 21.8857 61.8313 23.9 60.9455 25.4143C60.0884 26.9286 58.7884 28.0143 57.0455 28.6714C55.3312 29.3286 53.217 29.6571 50.7027 29.6571Z" fill="#303030"/>
<path fill-rule="evenodd" clip-rule="evenodd" d="M78.5713 0H85.7142L80.357 10.7143H100V17.8571H80.357L85.7142 28.5714H78.5713L71.4285 14.2857L78.5713 0ZM78.5714 14.2859V14.2855L78.5713 14.2857L78.5714 14.2859Z" fill="#F1550D"/>
</svg>
