<svg width="150" height="45" viewBox="0 0 150 45" fill="none" xmlns="http://www.w3.org/2000/svg">
<path d="M96.4287 42.8571L107.143 42.8571L117.857 21.4285L107.143 -2.57662e-05L96.4287 -2.48295e-05L107.143 21.4285L96.4287 42.8571Z" fill="#FF7600"/>
<path d="M17.2929 44.4857C13.5643 44.4857 10.3929 44.0143 7.77857 43.0714C5.20714 42.0857 3.25714 40.4786 1.92857 38.25C0.642857 36.0214 0 33 0 29.1857V0H10.1571V29.5714C10.1571 31.8429 10.7571 33.4714 11.9571 34.4571C13.1571 35.4429 14.9357 35.9357 17.2929 35.9357C19.6929 35.9357 21.4929 35.4429 22.6929 34.4571C23.8929 33.4714 24.4929 31.8429 24.4929 29.5714V0H34.65V29.0571C34.65 32.8286 33.9857 35.85 32.6571 38.1214C31.3714 40.3929 29.4214 42.0214 26.8071 43.0071C24.2357 43.9929 21.0643 44.4857 17.2929 44.4857Z" fill="#FF7600"/>
<path d="M41.5657 43.7143V0H51.7229V43.7143H41.5657Z" fill="#FF7600"/>
<path d="M76.054 44.4857C72.3254 44.4857 69.154 44.0143 66.5397 43.0714C63.9683 42.0857 62.0183 40.4786 60.6897 38.25C59.404 36.0214 58.7612 33 58.7612 29.1857V0H68.9183V29.5714C68.9183 31.8429 69.5183 33.4714 70.7183 34.4571C71.9183 35.4429 73.6969 35.9357 76.054 35.9357C78.454 35.9357 80.254 35.4429 81.454 34.4571C82.654 33.4714 83.254 31.8429 83.254 29.5714V0H93.4112V29.0571C93.4112 32.8286 92.7469 35.85 91.4183 38.1214C90.1326 40.3929 88.1826 42.0214 85.5683 43.0071C82.9969 43.9929 79.8254 44.4857 76.054 44.4857Z" fill="#FF7600"/>
<path fill-rule="evenodd" clip-rule="evenodd" d="M117.857 0H128.571L120.536 16.0714H150V26.7857H120.536L128.571 42.8571H117.857L107.143 21.4286L117.857 0ZM117.857 21.4292V21.4279L117.857 21.4286L117.857 21.4292Z" fill="white"/>
</svg>
