<svg width="285" height="137" viewBox="0 0 285 137" fill="none" xmlns="http://www.w3.org/2000/svg">
<path d="M31.1221 116.339C25.3927 116.339 20.748 111.714 20.748 106.009L20.748 30.9908C20.748 25.2856 25.3927 20.6605 31.1221 20.6605H36.3714V28.5322H30.3337L30.3337 108.468H36.3714V116.339H31.1221Z" fill="#FF7F00"/>
<path d="M60.9373 72.7251C57.2441 72.7251 54.3602 72.1879 52.2853 71.1136C50.2105 69.9979 48.7582 68.2211 47.9282 65.7831C47.0983 63.3452 46.6833 60.1428 46.6833 56.176C46.6833 52.1678 47.1606 49.0068 48.115 46.6928C49.0694 44.3375 50.584 42.664 52.6588 41.6723C54.7751 40.6393 57.5346 40.1228 60.9373 40.1228C61.8917 40.1228 62.9706 40.1847 64.174 40.3087C65.3774 40.4327 66.5808 40.5979 67.7842 40.8046C68.9876 41.0112 70.025 41.2178 70.8964 41.4244L70.5852 48.9861C69.7553 48.9035 68.8216 48.8208 67.7842 48.7382C66.7468 48.6556 65.7509 48.5936 64.7965 48.5523C63.8421 48.4696 63.0744 48.4283 62.4934 48.4283C60.9166 48.4283 59.6717 48.6762 58.7588 49.1721C57.8458 49.6679 57.2026 50.4943 56.8292 51.6513C56.4557 52.767 56.269 54.2752 56.269 56.176C56.269 58.1594 56.435 59.7709 56.7669 61.0106C57.1404 62.2089 57.7628 63.0766 58.6343 63.6138C59.5472 64.1096 60.8336 64.3576 62.4934 64.3576C63.0744 64.3576 63.8421 64.3369 64.7965 64.2956C65.7924 64.2129 66.809 64.1303 67.8464 64.0477C68.9253 63.965 69.8798 63.903 70.7097 63.8617L70.9587 71.3615C70.1287 71.5681 69.1121 71.7747 67.9087 71.9813C66.7468 72.1466 65.5434 72.3119 64.2985 72.4772C63.0536 72.6424 61.9332 72.7251 60.9373 72.7251Z" fill="white"/>
<path d="M75.7622 71.9813V40.8046H85.2233V42.726C85.8458 42.3128 86.6134 41.9202 87.5264 41.5483C88.4808 41.1351 89.4767 40.8046 90.5141 40.5566C91.593 40.2674 92.6097 40.1228 93.5641 40.1228C95.4314 40.1228 96.946 40.3913 98.1079 40.9285C99.3113 41.4244 100.286 42.1475 101.033 43.0979C101.78 42.6433 102.693 42.1888 103.772 41.7343C104.893 41.2797 106.096 40.9079 107.382 40.6186C108.669 40.288 109.934 40.1228 111.179 40.1228C113.503 40.1228 115.412 40.4327 116.906 41.0525C118.441 41.631 119.624 42.5814 120.454 43.9036C121.325 45.1846 121.927 46.8168 122.259 48.8002C122.591 50.7836 122.757 53.1389 122.757 55.8661V71.9813H113.296V56.7958C113.296 54.8537 113.192 53.2629 112.984 52.0232C112.777 50.7836 112.362 49.8745 111.739 49.296C111.117 48.6762 110.225 48.3663 109.063 48.3663C108.399 48.3663 107.714 48.4283 107.009 48.5523C106.303 48.6762 105.639 48.8415 105.017 49.0481C104.436 49.2547 103.938 49.4613 103.523 49.6679C103.772 50.4117 103.938 51.4447 104.021 52.767C104.104 54.048 104.146 55.3702 104.146 56.7338V71.9813H94.6222V56.9198C94.6222 54.895 94.5185 53.2629 94.311 52.0232C94.1035 50.7836 93.6885 49.8745 93.0661 49.296C92.4852 48.6762 91.6137 48.3663 90.4518 48.3663C89.7879 48.3663 89.124 48.4283 88.46 48.5523C87.7961 48.6762 87.1944 48.8415 86.6549 49.0481C86.1155 49.2547 85.659 49.4407 85.2856 49.6059V71.9813H75.7622Z" fill="white"/>
<path d="M128.585 71.9813V40.8046H138.108V71.9813H128.585ZM128.585 36.4658V28.9041H138.108V36.4658H128.585Z" fill="white"/>
<path d="M144.393 71.9813V28.4082H153.917V71.9813H144.393Z" fill="white"/>
<path d="M160.38 71.9813V28.4082H169.903V71.9813H160.38Z" fill="white"/>
<path d="M184.832 72.7251C181.429 72.7251 178.877 71.8987 177.176 70.2458C175.516 68.593 174.686 66.0724 174.686 62.6841C174.686 60.2874 175.122 58.4486 175.993 57.1677C176.906 55.8454 178.213 54.895 179.915 54.3165C181.616 53.738 183.67 53.3868 186.077 53.2629L193.048 52.705V51.0935C193.048 49.8539 192.695 48.9861 191.99 48.4903C191.326 47.9531 190.33 47.6845 189.002 47.6845C187.799 47.6845 186.429 47.7258 184.894 47.8085C183.359 47.8911 181.844 47.9944 180.35 48.1184C178.856 48.2423 177.57 48.3663 176.491 48.4903L176.18 41.9202C177.3 41.631 178.628 41.3624 180.163 41.1145C181.74 40.8252 183.379 40.5979 185.081 40.4327C186.782 40.2261 188.38 40.1228 189.874 40.1228C192.571 40.1228 194.853 40.4533 196.721 41.1145C198.629 41.7343 200.082 42.8086 201.078 44.3375C202.074 45.8251 202.571 47.9118 202.571 50.5976V64.2336C202.696 64.7295 202.986 65.122 203.443 65.4113C203.941 65.6592 204.48 65.8451 205.061 65.9691L204.875 72.2912C204.252 72.3325 203.588 72.3739 202.883 72.4152C202.177 72.4978 201.513 72.5185 200.891 72.4772C200.268 72.4772 199.75 72.4565 199.335 72.4152C198.256 72.2912 197.322 72.0433 196.534 71.6714C195.787 71.2582 195.227 70.845 194.853 70.4318C194.189 70.721 193.318 71.0516 192.239 71.4235C191.16 71.7954 189.977 72.1053 188.691 72.3532C187.446 72.6011 186.16 72.7251 184.832 72.7251ZM187.197 65.8451C187.903 65.8451 188.608 65.7625 189.313 65.5972C190.06 65.4319 190.766 65.246 191.43 65.0394C192.094 64.8328 192.633 64.6468 193.048 64.4815V58.3453L187.571 58.8412C186.409 58.9652 185.558 59.3371 185.019 59.9569C184.479 60.5354 184.209 61.3618 184.209 62.4361C184.209 63.4692 184.458 64.2956 184.956 64.9154C185.454 65.5352 186.201 65.8451 187.197 65.8451Z" fill="white"/>
<path d="M209.186 71.9813V40.8046H218.648V42.726C219.311 42.3128 220.1 41.9202 221.013 41.5483C221.926 41.1351 222.88 40.8046 223.876 40.5566C224.913 40.2674 225.889 40.1228 226.802 40.1228C229.001 40.1228 230.827 40.412 232.279 40.9905C233.731 41.5277 234.893 42.4161 235.765 43.6557C236.636 44.8953 237.259 46.5275 237.632 48.5523C238.006 50.577 238.192 53.0356 238.192 55.9281V71.9813H228.669V56.4859C228.669 54.5438 228.544 52.9736 228.295 51.7753C228.046 50.577 227.611 49.7092 226.988 49.1721C226.366 48.6349 225.474 48.3663 224.312 48.3663C223.648 48.3663 222.963 48.4283 222.258 48.5523C221.552 48.6762 220.888 48.8415 220.266 49.0481C219.643 49.2547 219.125 49.4613 218.71 49.6679V71.9813H209.186Z" fill="white"/>
<path d="M136.463 109.811C133.766 109.811 131.65 109.232 130.115 108.075C128.621 106.877 127.563 105.121 126.94 102.807C126.318 100.493 126.006 97.5798 126.006 94.0675V77.8903H135.53V93.6336C135.53 95.617 135.634 97.1872 135.841 98.3442C136.049 99.5012 136.463 100.328 137.086 100.823C137.708 101.278 138.601 101.505 139.762 101.505C140.841 101.505 141.879 101.381 142.875 101.133C143.871 100.844 144.659 100.555 145.24 100.266V77.8903H154.763V109.067H145.302V107.27C143.891 108.013 142.501 108.612 141.132 109.067C139.804 109.563 138.248 109.811 136.463 109.811Z" fill="white"/>
<path d="M160.844 109.067V77.8903H170.367V109.067H160.844Z" fill="white"/>
<path d="M186.612 109.811C183.914 109.811 181.798 109.232 180.263 108.075C178.769 106.877 177.711 105.121 177.088 102.807C176.466 100.493 176.154 97.5798 176.154 94.0675V77.8903H185.678V93.6336C185.678 95.617 185.782 97.1872 185.989 98.3442C186.197 99.5012 186.612 100.328 187.234 100.823C187.856 101.278 188.749 101.505 189.91 101.505C190.989 101.505 192.027 101.381 193.023 101.133C194.019 100.844 194.807 100.555 195.388 100.266V77.8903H204.911V109.067H195.45V107.27C194.039 108.013 192.649 108.612 191.28 109.067C189.952 109.563 188.396 109.811 186.612 109.811Z" fill="white"/>
<path d="M208.564 109.067L216.407 93.5716L208.564 77.8903H218.835L223.69 88.3032L228.607 77.8903H238.193L230.599 93.3857L238.13 109.067H227.798L222.881 99.212L218.274 109.067H208.564Z" fill="white"/>
<path d="M111.459 98.0756H121.833V108.406H111.459V98.0756Z" fill="white"/>
<path d="M253.878 116.339C259.607 116.339 264.252 111.714 264.252 106.009L264.252 30.9908C264.252 25.2856 259.607 20.6605 253.878 20.6605H248.628V28.5322H254.666L254.666 108.468H248.628V116.339H253.878Z" fill="#FF7F00"/>
</svg>
