<?xml version="1.0" encoding="utf-8"?>
<!-- Generator: Adobe Illustrator 24.1.0, SVG Export Plug-In . SVG Version: 6.00 Build 0)  -->
<svg version="1.1" id="Capa_1" xmlns="http://www.w3.org/2000/svg" xmlns:xlink="http://www.w3.org/1999/xlink" x="0px" y="0px"
	 viewBox="0 0 278.4 136.7" style="enable-background:new 0 0 278.4 136.7;" xml:space="preserve">
<style type="text/css">
	.st0{fill:#F1550D;}
	.st1{fill:#FFFFFF;}
</style>
<g>
	<path class="st0" d="M43,109.3c-4.9,0-9-4-9-9v-65c0-4.9,4-9,9-9h4.5v6.8h-5.2v69.3h5.2v6.8H43z"/>
	<path class="st1" d="M68.8,71.6c-3.2,0-5.7-0.5-7.5-1.4c-1.8-1-3-2.5-3.8-4.6c-0.7-2.1-1.1-4.9-1.1-8.3c0-3.5,0.4-6.2,1.2-8.2
		c0.8-2,2.1-3.5,3.9-4.4c1.8-0.9,4.2-1.3,7.1-1.3c0.8,0,1.8,0.1,2.8,0.2c1,0.1,2.1,0.3,3.1,0.4c1,0.2,1.9,0.4,2.7,0.5L77.1,51
		c-0.7-0.1-1.5-0.1-2.4-0.2c-0.9-0.1-1.8-0.1-2.6-0.2c-0.8-0.1-1.5-0.1-2-0.1c-1.4,0-2.4,0.2-3.2,0.6c-0.8,0.4-1.3,1.1-1.7,2.1
		c-0.3,1-0.5,2.3-0.5,3.9c0,1.7,0.1,3.1,0.4,4.2c0.3,1,0.9,1.8,1.6,2.3c0.8,0.4,1.9,0.6,3.3,0.6c0.5,0,1.2,0,2-0.1
		c0.9-0.1,1.7-0.1,2.6-0.2c0.9-0.1,1.8-0.1,2.5-0.2l0.2,6.5c-0.7,0.2-1.6,0.4-2.6,0.5c-1,0.1-2,0.3-3.1,0.4
		C70.6,71.5,69.7,71.6,68.8,71.6z"/>
	<path class="st1" d="M81.6,70.9v-27h8.2v1.7c0.5-0.4,1.2-0.7,2-1c0.8-0.4,1.7-0.6,2.6-0.9c0.9-0.3,1.8-0.4,2.6-0.4
		c1.6,0,2.9,0.2,3.9,0.7c1,0.4,1.9,1.1,2.5,1.9c0.6-0.4,1.4-0.8,2.4-1.2c1-0.4,2-0.7,3.1-1c1.1-0.3,2.2-0.4,3.3-0.4
		c2,0,3.7,0.3,4.9,0.8c1.3,0.5,2.3,1.3,3.1,2.5c0.8,1.1,1.3,2.5,1.6,4.2c0.3,1.7,0.4,3.8,0.4,6.1v14H114V57.8c0-1.7-0.1-3.1-0.3-4.1
		c-0.2-1.1-0.5-1.9-1.1-2.4c-0.5-0.5-1.3-0.8-2.3-0.8c-0.6,0-1.2,0.1-1.8,0.2c-0.6,0.1-1.2,0.3-1.7,0.4c-0.5,0.2-0.9,0.4-1.3,0.5
		c0.2,0.6,0.4,1.5,0.4,2.7c0.1,1.1,0.1,2.3,0.1,3.4v13.2h-8.2V57.9c0-1.8-0.1-3.2-0.3-4.2c-0.2-1.1-0.5-1.9-1.1-2.4
		c-0.5-0.5-1.3-0.8-2.3-0.8c-0.6,0-1.1,0.1-1.7,0.2c-0.6,0.1-1.1,0.3-1.6,0.4c-0.5,0.2-0.9,0.3-1.2,0.5v19.4H81.6z"/>
	<path class="st1" d="M127.2,70.9v-27h8.2v27H127.2z M127.2,40.2v-6.6h8.2v6.6H127.2z"/>
	<path class="st1" d="M140.8,70.9V33.2h8.2v37.8H140.8z"/>
	<path class="st1" d="M154.6,70.9V33.2h8.2v37.8H154.6z"/>
	<path class="st1" d="M175.7,71.6c-2.9,0-5.1-0.7-6.6-2.1c-1.4-1.4-2.1-3.6-2.1-6.6c0-2.1,0.4-3.7,1.1-4.8c0.8-1.1,1.9-2,3.4-2.5
		s3.2-0.8,5.3-0.9l6-0.5v-1.4c0-1.1-0.3-1.8-0.9-2.3c-0.6-0.5-1.4-0.7-2.6-0.7c-1,0-2.2,0-3.5,0.1c-1.3,0.1-2.6,0.2-3.9,0.3
		c-1.3,0.1-2.4,0.2-3.3,0.3l-0.3-5.7c1-0.3,2.1-0.5,3.4-0.7c1.4-0.3,2.8-0.4,4.2-0.6c1.5-0.2,2.8-0.3,4.1-0.3c2.3,0,4.3,0.3,5.9,0.9
		c1.6,0.5,2.9,1.5,3.8,2.8c0.9,1.3,1.3,3.1,1.3,5.4v11.8c0.1,0.4,0.4,0.8,0.8,1c0.4,0.2,0.9,0.4,1.4,0.5l-0.2,5.5
		c-0.5,0-1.1,0.1-1.7,0.1c-0.6,0.1-1.2,0.1-1.7,0.1c-0.5,0-1,0-1.3-0.1c-0.9-0.1-1.7-0.3-2.4-0.6c-0.6-0.4-1.1-0.7-1.5-1.1
		c-0.6,0.3-1.3,0.5-2.3,0.9s-2,0.6-3.1,0.8C178,71.5,176.9,71.6,175.7,71.6z M177.8,65.6c0.6,0,1.2-0.1,1.8-0.2
		c0.6-0.1,1.3-0.3,1.8-0.5c0.6-0.2,1-0.3,1.4-0.5v-5.3l-4.7,0.4c-1,0.1-1.7,0.4-2.2,1c-0.5,0.5-0.7,1.2-0.7,2.1
		c0,0.9,0.2,1.6,0.6,2.1S176.9,65.6,177.8,65.6z"/>
	<path class="st1" d="M196.7,70.9v-27h8.2v1.7c0.6-0.4,1.3-0.7,2-1c0.8-0.4,1.6-0.6,2.5-0.9c0.9-0.3,1.7-0.4,2.5-0.4
		c1.9,0,3.5,0.3,4.7,0.8c1.3,0.5,2.3,1.2,3,2.3c0.8,1.1,1.3,2.5,1.6,4.2c0.3,1.8,0.5,3.9,0.5,6.4v13.9h-8.2V57.5
		c0-1.7-0.1-3-0.3-4.1c-0.2-1-0.6-1.8-1.1-2.3c-0.5-0.5-1.3-0.7-2.3-0.7c-0.6,0-1.2,0.1-1.8,0.2c-0.6,0.1-1.2,0.3-1.7,0.4
		c-0.5,0.2-1,0.4-1.3,0.5v19.3H196.7z"/>
	<path class="st1" d="M134,103.7c-2.3,0-4.2-0.5-5.5-1.5c-1.3-1-2.2-2.6-2.7-4.6c-0.5-2-0.8-4.5-0.8-7.6V76h8.2v13.6
		c0,1.7,0.1,3.1,0.3,4.1c0.2,1,0.5,1.7,1.1,2.1c0.5,0.4,1.3,0.6,2.3,0.6c0.9,0,1.8-0.1,2.7-0.3c0.9-0.3,1.5-0.5,2-0.8V76h8.2v27
		h-8.2v-1.6c-1.2,0.6-2.4,1.2-3.6,1.6C136.9,103.5,135.5,103.7,134,103.7z"/>
	<path class="st1" d="M155,103.1V76h8.2v27H155z"/>
	<path class="st1" d="M177.3,103.7c-2.3,0-4.2-0.5-5.5-1.5c-1.3-1-2.2-2.6-2.7-4.6s-0.8-4.5-0.8-7.6V76h8.2v13.6
		c0,1.7,0.1,3.1,0.3,4.1s0.5,1.7,1.1,2.1c0.5,0.4,1.3,0.6,2.3,0.6c0.9,0,1.8-0.1,2.7-0.3c0.9-0.3,1.5-0.5,2-0.8V76h8.2v27h-8.2v-1.6
		c-1.2,0.6-2.4,1.2-3.6,1.6C180.1,103.5,178.8,103.7,177.3,103.7z"/>
	<path class="st1" d="M196.2,103.1l6.8-13.4L196.2,76h8.9l4.2,9l4.2-9h8.3l-6.6,13.4l6.5,13.6h-8.9l-4.2-8.5l-4,8.5H196.2z"/>
	<path class="st1" d="M112.4,93.5h9v9h-9V93.5z"/>
	<path class="st0" d="M235.2,109.3c4.9,0,9-4,9-9v-65c0-4.9-4-9-9-9h-4.5v6.8h5.2v69.3h-5.2v6.8H235.2z"/>
</g>
</svg>
