<svg width="110" height="54" viewBox="0 0 110 54" fill="none" xmlns="http://www.w3.org/2000/svg">
<path d="M12 45.048C9.79086 45.048 8 43.2571 8 41.048L8 12C8 9.79087 9.79086 8 12 8H14.024V11.048H11.696L11.696 42H14.024V45.048H12Z" fill="#F1550D"/>
<path d="M23.5199 28.184C22.0959 28.184 20.9839 27.976 20.1839 27.56C19.3839 27.128 18.8239 26.44 18.5039 25.496C18.1839 24.552 18.0239 23.312 18.0239 21.776C18.0239 20.224 18.2079 19 18.5759 18.104C18.9439 17.192 19.5279 16.544 20.3279 16.16C21.1439 15.76 22.2079 15.56 23.5199 15.56C23.8879 15.56 24.3039 15.584 24.7679 15.632C25.2319 15.68 25.6959 15.744 26.1599 15.824C26.6239 15.904 27.0239 15.984 27.3599 16.064L27.2399 18.992C26.9199 18.96 26.5599 18.928 26.1599 18.896C25.7599 18.864 25.3759 18.84 25.0079 18.824C24.6399 18.792 24.3439 18.776 24.1199 18.776C23.5119 18.776 23.0319 18.872 22.6799 19.064C22.3279 19.256 22.0799 19.576 21.9359 20.024C21.7919 20.456 21.7199 21.04 21.7199 21.776C21.7199 22.544 21.7839 23.168 21.9119 23.648C22.0559 24.112 22.2959 24.448 22.6319 24.656C22.9839 24.848 23.4799 24.944 24.1199 24.944C24.3439 24.944 24.6399 24.936 25.0079 24.92C25.3919 24.888 25.7839 24.856 26.1839 24.824C26.5999 24.792 26.9679 24.768 27.2879 24.752L27.3839 27.656C27.0639 27.736 26.6719 27.816 26.2079 27.896C25.7599 27.96 25.2959 28.024 24.8159 28.088C24.3359 28.152 23.9039 28.184 23.5199 28.184Z" fill="white"/>
<path d="M29.2361 27.896V15.824H32.8841V16.568C33.1241 16.408 33.4201 16.256 33.7721 16.112C34.1401 15.952 34.5241 15.824 34.9241 15.728C35.3401 15.616 35.7321 15.56 36.1001 15.56C36.8201 15.56 37.4041 15.664 37.8521 15.872C38.3161 16.064 38.6921 16.344 38.9801 16.712C39.2681 16.536 39.6201 16.36 40.0361 16.184C40.4681 16.008 40.9321 15.864 41.4281 15.752C41.9241 15.624 42.4121 15.56 42.8921 15.56C43.7881 15.56 44.5241 15.68 45.1001 15.92C45.6921 16.144 46.1481 16.512 46.4681 17.024C46.8041 17.52 47.0361 18.152 47.1641 18.92C47.2921 19.688 47.3561 20.6 47.3561 21.656V27.896H43.7081V22.016C43.7081 21.264 43.6681 20.648 43.5881 20.168C43.5081 19.688 43.3481 19.336 43.1081 19.112C42.8681 18.872 42.5241 18.752 42.0761 18.752C41.8201 18.752 41.5561 18.776 41.284 18.824C41.0121 18.872 40.7561 18.936 40.5161 19.016C40.2921 19.096 40.1001 19.176 39.9401 19.256C40.0361 19.544 40.1001 19.944 40.1321 20.456C40.1641 20.952 40.18 21.464 40.18 21.992V27.896H36.5081V22.064C36.5081 21.28 36.4681 20.648 36.3881 20.168C36.3081 19.688 36.1481 19.336 35.9081 19.112C35.6841 18.872 35.3481 18.752 34.9001 18.752C34.6441 18.752 34.3881 18.776 34.1321 18.824C33.8761 18.872 33.6441 18.936 33.4361 19.016C33.2281 19.096 33.0521 19.168 32.9081 19.232V27.896H29.2361Z" fill="white"/>
<path d="M49.6032 27.896V15.824H53.2752V27.896H49.6032ZM49.6032 14.144V11.216H53.2752V14.144H49.6032Z" fill="white"/>
<path d="M55.6987 27.896V11.024H59.3707V27.896H55.6987Z" fill="white"/>
<path d="M61.8627 27.896V11.024H65.5347V27.896H61.8627Z" fill="white"/>
<path d="M71.2908 28.184C69.9788 28.184 68.9948 27.864 68.3388 27.224C67.6988 26.584 67.3788 25.608 67.3788 24.296C67.3788 23.368 67.5468 22.656 67.8828 22.16C68.2348 21.648 68.7388 21.28 69.3948 21.056C70.0508 20.832 70.8428 20.696 71.7708 20.648L74.4588 20.432V19.808C74.4588 19.328 74.3228 18.992 74.0508 18.8C73.7948 18.592 73.4108 18.488 72.8988 18.488C72.4348 18.488 71.9068 18.504 71.3148 18.536C70.7228 18.568 70.1388 18.608 69.5628 18.656C68.9868 18.704 68.4908 18.752 68.0748 18.8L67.9548 16.256C68.3868 16.144 68.8988 16.04 69.4908 15.944C70.0988 15.832 70.7308 15.744 71.3868 15.68C72.0428 15.6 72.6588 15.56 73.2348 15.56C74.2748 15.56 75.1548 15.688 75.8748 15.944C76.6108 16.184 77.1708 16.6 77.5548 17.192C77.9388 17.768 78.1308 18.576 78.1308 19.616V24.896C78.1788 25.088 78.2908 25.24 78.4668 25.352C78.6588 25.448 78.8668 25.52 79.0908 25.568L79.0188 28.016C78.7788 28.032 78.5228 28.048 78.2508 28.064C77.9788 28.096 77.7228 28.104 77.4828 28.088C77.2428 28.088 77.0428 28.08 76.8828 28.064C76.4668 28.016 76.1068 27.92 75.8028 27.776C75.5148 27.616 75.2988 27.456 75.1548 27.296C74.8988 27.408 74.5628 27.536 74.1468 27.68C73.7308 27.824 73.2748 27.944 72.7788 28.04C72.2988 28.136 71.8028 28.184 71.2908 28.184ZM72.2028 25.52C72.4748 25.52 72.7468 25.488 73.0188 25.424C73.3068 25.36 73.5788 25.288 73.8348 25.208C74.0908 25.128 74.2988 25.056 74.4588 24.992V22.616L72.3468 22.808C71.8988 22.856 71.5708 23 71.3628 23.24C71.1548 23.464 71.0508 23.784 71.0508 24.2C71.0508 24.6 71.1468 24.92 71.3388 25.16C71.5308 25.4 71.8188 25.52 72.2028 25.52Z" fill="white"/>
<path d="M80.6814 27.896V15.824H84.3294V16.568C84.5854 16.408 84.8894 16.256 85.2414 16.112C85.5934 15.952 85.9614 15.824 86.3454 15.728C86.7454 15.616 87.1214 15.56 87.4734 15.56C88.3214 15.56 89.0254 15.672 89.5854 15.896C90.1454 16.104 90.5934 16.448 90.9294 16.928C91.2654 17.408 91.5054 18.04 91.6494 18.824C91.7934 19.608 91.8654 20.56 91.8654 21.68V27.896H88.1934V21.896C88.1934 21.144 88.1454 20.536 88.0494 20.072C87.9534 19.608 87.7854 19.272 87.5454 19.064C87.3054 18.856 86.9614 18.752 86.5134 18.752C86.2574 18.752 85.9934 18.776 85.7214 18.824C85.4494 18.872 85.1934 18.936 84.9534 19.016C84.7134 19.096 84.5134 19.176 84.3534 19.256V27.896H80.6814Z" fill="white"/>
<path d="M52.641 42.544C51.601 42.544 50.785 42.32 50.193 41.872C49.617 41.408 49.209 40.728 48.969 39.832C48.729 38.936 48.609 37.808 48.609 36.448V30.184H52.281V36.28C52.281 37.048 52.321 37.656 52.401 38.104C52.481 38.552 52.641 38.872 52.881 39.064C53.121 39.24 53.465 39.328 53.913 39.328C54.329 39.328 54.729 39.28 55.113 39.184C55.497 39.072 55.801 38.96 56.025 38.848V30.184H59.697V42.256H56.049V41.56C55.505 41.848 54.969 42.08 54.441 42.256C53.929 42.448 53.329 42.544 52.641 42.544Z" fill="white"/>
<path d="M62.0415 42.256V30.184H65.7135V42.256H62.0415Z" fill="white"/>
<path d="M71.9769 42.544C70.9369 42.544 70.1209 42.32 69.5289 41.872C68.9529 41.408 68.5449 40.728 68.3049 39.832C68.0649 38.936 67.9449 37.808 67.9449 36.448V30.184H71.6169V36.28C71.6169 37.048 71.6569 37.656 71.7369 38.104C71.8169 38.552 71.9769 38.872 72.2169 39.064C72.4569 39.24 72.8009 39.328 73.2489 39.328C73.6649 39.328 74.0649 39.28 74.4489 39.184C74.8329 39.072 75.1369 38.96 75.3609 38.848V30.184H79.0329V42.256H75.3849V41.56C74.8409 41.848 74.3049 42.08 73.7769 42.256C73.2649 42.448 72.6649 42.544 71.9769 42.544Z" fill="white"/>
<path d="M80.4414 42.256L83.4654 36.256L80.4414 30.184H84.4014L86.2734 34.216L88.1694 30.184H91.8654L88.9374 36.184L91.8414 42.256H87.8574L85.9614 38.44L84.1854 42.256H80.4414Z" fill="white"/>
<path d="M43 38H47V42H43V38Z" fill="white"/>
<path d="M97.8894 45.048C100.099 45.048 101.889 43.2571 101.889 41.048L101.889 12C101.889 9.79087 100.099 8 97.8894 8H95.8654V11.048H98.1934L98.1934 42H95.8654V45.048H97.8894Z" fill="#F1550D"/>
</svg>
