<svg width="285" height="137" fill="none" xmlns="http://www.w3.org/2000/svg"><path d="M31.122 116.339c-5.73 0-10.374-4.625-10.374-10.33V30.991c0-5.705 4.645-10.33 10.374-10.33h5.25v7.871h-6.038v79.936h6.037v7.871h-5.249Z" fill="#FF7F00"/><path d="M60.937 72.725c-3.693 0-6.577-.537-8.652-1.611-2.074-1.116-3.527-2.893-4.357-5.33-.83-2.439-1.245-5.641-1.245-9.608 0-4.008.478-7.17 1.432-9.483.954-2.355 2.469-4.029 4.544-5.02 2.116-1.034 4.876-1.55 8.278-1.55a31.9 31.9 0 0 1 3.237.186c1.203.124 2.407.289 3.61.496a51.47 51.47 0 0 1 3.112.62l-.31 7.561c-.83-.082-1.764-.165-2.802-.248a82.789 82.789 0 0 0-2.988-.186 27.954 27.954 0 0 0-2.303-.124c-1.576 0-2.821.248-3.734.744-.913.496-1.556 1.322-1.93 2.48-.373 1.115-.56 2.623-.56 4.524 0 1.983.166 3.595.498 4.835.373 1.198.996 2.066 1.867 2.603.913.496 2.2.744 3.86.744.58 0 1.348-.021 2.302-.062.996-.083 2.013-.166 3.05-.248a108.56 108.56 0 0 1 2.864-.186l.249 7.5c-.83.206-1.847.413-3.05.62-1.162.165-2.366.33-3.61.495a25.797 25.797 0 0 1-3.362.248ZM75.762 71.981V40.805h9.461v1.921c.623-.413 1.39-.806 2.303-1.178a18.09 18.09 0 0 1 2.988-.991c1.079-.29 2.096-.434 3.05-.434 1.867 0 3.382.268 4.544.806 1.203.495 2.178 1.218 2.925 2.169.747-.455 1.66-.91 2.739-1.364a23.057 23.057 0 0 1 3.61-1.115 15.218 15.218 0 0 1 3.797-.496c2.324 0 4.233.31 5.727.93 1.535.578 2.718 1.528 3.548 2.85.871 1.282 1.473 2.914 1.805 4.897.332 1.984.498 4.339.498 7.066v16.115h-9.461V56.796c0-1.942-.104-3.533-.312-4.773-.207-1.24-.622-2.149-1.245-2.727-.622-.62-1.514-.93-2.676-.93-.664 0-1.349.062-2.054.186-.706.124-1.37.29-1.992.496-.581.207-1.079.413-1.494.62.249.744.415 1.777.498 3.099.083 1.281.125 2.603.125 3.967V71.98h-9.524V56.92c0-2.025-.103-3.657-.311-4.897-.208-1.24-.623-2.149-1.245-2.727-.58-.62-1.452-.93-2.614-.93-.664 0-1.328.062-1.992.186a10.37 10.37 0 0 0-1.805.496c-.54.207-.996.393-1.37.558V71.98h-9.523ZM128.585 71.981V40.805h9.523V71.98h-9.523Zm0-35.515v-7.562h9.523v7.562h-9.523ZM144.393 71.981V28.408h9.524v43.573h-9.524ZM160.38 71.981V28.408h9.523v43.573h-9.523ZM184.832 72.725c-3.403 0-5.955-.826-7.656-2.48-1.66-1.652-2.49-4.173-2.49-7.56 0-2.398.436-4.236 1.307-5.517.913-1.323 2.22-2.273 3.922-2.852 1.701-.578 3.755-.93 6.162-1.053l6.971-.558v-1.611c0-1.24-.353-2.108-1.058-2.604-.664-.537-1.66-.806-2.988-.806a77.23 77.23 0 0 0-4.108.125c-1.535.082-3.05.185-4.544.31-1.494.123-2.78.247-3.859.371l-.311-6.57c1.12-.289 2.448-.558 3.983-.806a58.668 58.668 0 0 1 4.918-.681 39.87 39.87 0 0 1 4.793-.31c2.697 0 4.979.33 6.847.992 1.908.62 3.361 1.694 4.357 3.222.996 1.488 1.493 3.575 1.493 6.26v13.637c.125.496.415.888.872 1.177a6.797 6.797 0 0 0 1.618.558l-.186 6.322c-.623.041-1.287.083-1.992.124-.706.083-1.37.103-1.992.062-.623 0-1.141-.02-1.556-.062-1.079-.124-2.013-.372-2.801-.744-.747-.413-1.307-.826-1.681-1.24-.664.29-1.535.62-2.614.993a26.009 26.009 0 0 1-3.548.93 19.714 19.714 0 0 1-3.859.371Zm2.365-6.88a9.24 9.24 0 0 0 2.116-.248 26.15 26.15 0 0 0 2.117-.558 22.912 22.912 0 0 0 1.618-.558v-6.136l-5.477.496c-1.162.124-2.013.496-2.552 1.116-.54.578-.81 1.405-.81 2.48 0 1.032.249 1.859.747 2.478.498.62 1.245.93 2.241.93ZM209.186 71.981V40.805h9.462v1.921c.663-.413 1.452-.806 2.365-1.178a16.731 16.731 0 0 1 2.863-.991c1.037-.29 2.013-.434 2.926-.434 2.199 0 4.025.289 5.477.867 1.452.538 2.614 1.426 3.486 2.666.871 1.24 1.494 2.872 1.867 4.896.374 2.025.56 4.484.56 7.376v16.053h-9.523V56.486c0-1.942-.125-3.512-.374-4.71-.249-1.199-.684-2.067-1.307-2.604-.622-.537-1.514-.806-2.676-.806-.664 0-1.349.062-2.054.186-.706.124-1.37.29-1.992.496-.623.207-1.141.413-1.556.62V71.98h-9.524ZM136.463 109.811c-2.697 0-4.813-.579-6.348-1.736-1.494-1.198-2.552-2.954-3.175-5.268-.622-2.314-.934-5.227-.934-8.74V77.89h9.524v15.744c0 1.983.104 3.553.311 4.71.208 1.157.622 1.984 1.245 2.479.622.455 1.515.682 2.676.682a12.84 12.84 0 0 0 3.113-.372c.996-.289 1.784-.578 2.365-.867V77.89h9.523v31.177h-9.461v-1.797a27.757 27.757 0 0 1-4.17 1.797c-1.328.496-2.884.744-4.669.744ZM160.844 109.067V77.89h9.523v31.177h-9.523ZM186.612 109.811c-2.698 0-4.814-.579-6.349-1.736-1.494-1.198-2.552-2.954-3.175-5.268-.622-2.314-.934-5.227-.934-8.74V77.89h9.524v15.744c0 1.983.104 3.553.311 4.71.208 1.157.623 1.984 1.245 2.479.622.455 1.515.682 2.676.682a12.84 12.84 0 0 0 3.113-.372c.996-.289 1.784-.578 2.365-.867V77.89h9.523v31.177h-9.461v-1.797a27.757 27.757 0 0 1-4.17 1.797c-1.328.496-2.884.744-4.668.744ZM208.564 109.067l7.843-15.495-7.843-15.682h10.271l4.855 10.413 4.917-10.413h9.586l-7.594 15.496 7.531 15.681h-10.332l-4.917-9.855-4.607 9.855h-9.71ZM111.459 98.076h10.374v10.33h-10.374v-10.33Z" fill="#fff"/><path d="M253.878 116.339c5.729 0 10.374-4.625 10.374-10.33V30.991c0-5.705-4.645-10.33-10.374-10.33h-5.25v7.871h6.038v79.936h-6.038v7.871h5.25Z" fill="#FF7F00"/></svg>