<svg width="24" height="24" viewBox="0 0 24 24" fill="none" xmlns="http://www.w3.org/2000/svg">
<g clip-path="url(#clip0_11619_16187)">
<path d="M23 11.3889C23.0042 13.0021 22.6273 14.5934 21.9 16.0333C21.0376 17.7588 19.7119 19.2101 18.0713 20.2247C16.4307 21.2393 14.5401 21.777 12.6111 21.7778C10.9979 21.782 9.40657 21.4051 7.96666 20.6778L1 23L3.32222 16.0333C2.59491 14.5934 2.21801 13.0021 2.22222 11.3889C2.22297 9.45995 2.76075 7.56929 3.77532 5.9287C4.78989 4.28811 6.24119 2.96239 7.96666 2.10003C9.40657 1.37273 10.9979 0.995829 12.6111 1.00003H13.2222C15.7697 1.14058 18.1759 2.21585 19.98 4.01997C21.7841 5.82409 22.8594 8.23027 23 10.7778V11.3889Z" stroke="#FAFAFA" stroke-width="2" stroke-linecap="round" stroke-linejoin="round"/>
<path d="M16.9997 14.2356C16.9997 14.2273 16.9998 14.219 17 14.2108C17.0006 14.1858 16.992 14.1613 16.9755 14.1418C16.9593 14.1227 16.9365 14.1097 16.911 14.1056L16.9997 14.2356ZM16.9997 14.2356L16.9997 15.8916L16.9997 15.8956C16.9997 15.9098 16.9968 15.9239 16.9911 15.937C16.9853 15.9501 16.9768 15.9621 16.966 15.972C16.9552 15.9819 16.9423 15.9895 16.9281 15.9943C16.9153 15.9986 16.9018 16.0005 16.8883 15.9999C15.3464 15.8306 13.8656 15.3037 12.5642 14.4614L12.5643 14.4614L12.5565 14.4564C11.344 13.6875 10.3162 12.6617 9.54597 11.452L9.546 11.452L9.54122 11.4446C8.69427 10.1398 8.16646 8.65481 8.00014 7.10941M16.9997 14.2356L8.70244 11.989M9.88007 7.08765C9.96022 7.69003 10.1081 8.28146 10.321 8.85074L10.321 8.85074L10.3218 8.853C10.3287 8.87134 10.3302 8.89119 10.3261 8.91026C10.3221 8.92892 10.313 8.94633 10.2993 8.96042L9.59995 9.65842C9.28084 9.9769 9.2143 10.4695 9.43749 10.8613C10.314 12.3997 11.5902 13.6733 13.1313 14.5478C13.5222 14.7697 14.0131 14.7034 14.3312 14.3859L15.0306 13.6879L10.8705 6.94946M9.88007 7.08765C9.87975 7.08526 9.87943 7.08287 9.87912 7.08047L10.8705 6.94946M9.88007 7.08765C9.88018 7.08833 9.88028 7.08901 9.88038 7.08969L10.8705 6.94946M9.88007 7.08765C9.87623 7.06397 9.86407 7.04198 9.84519 7.02578C9.82572 7.00907 9.80049 6.99975 9.77417 7.00001L9.76434 7.0001V7.00005H8.10582M10.8705 6.94946C10.8329 6.6842 10.7 6.44163 10.4965 6.26695C10.293 6.09228 10.0328 5.99742 9.76434 6.00005H8.10511C7.95155 6.0002 7.79969 6.03225 7.65922 6.09418C7.51874 6.1561 7.39273 6.24654 7.28919 6.35974C7.18566 6.47293 7.10688 6.6064 7.05786 6.75164C7.00884 6.89689 6.99067 7.05073 7.00449 7.20337M8.10582 7.00005C8.1059 7.00005 8.10597 7.00005 8.10605 7.00005L8.10511 6.00012V7.00005H8.10582ZM8.10582 7.00005C8.09087 7.0001 8.07614 7.00324 8.06259 7.00921C8.04898 7.01522 8.03691 7.02392 8.02709 7.03465C8.01727 7.04538 8.00991 7.05791 8.00536 7.0714C8.00122 7.08368 7.99946 7.09656 8.00014 7.10941M8.00014 7.10941C7.99972 7.10546 7.9993 7.10151 7.99888 7.09757L7.00449 7.20337M8.00014 7.10941C8.00021 7.11067 8.0003 7.11193 8.00041 7.11319L7.00449 7.20337M7.00449 7.20337C7.18603 8.90954 7.76772 10.549 8.70244 11.989M8.70244 11.989L8.70245 11.989L8.70244 11.989Z" stroke="#FAFAFA" stroke-width="2" stroke-linecap="round" stroke-linejoin="round"/>
</g>
<defs>
<clipPath id="clip0_11619_16187">
<rect width="24" height="24" fill="white"/>
</clipPath>
</defs>
</svg>
