<svg width="30" height="31" viewBox="0 0 30 31" fill="none" xmlns="http://www.w3.org/2000/svg">
<path d="M12 21H9.60555C8.60249 21 7.6658 20.4987 7.1094 19.6641V19.6641C6.4376 18.6564 6.4376 17.3436 7.1094 16.3359L7.57684 15.6347C7.85643 15.2154 8.05423 14.7469 8.15984 14.2541L9.03617 10.1645C9.32477 8.81776 10.286 7.71419 11.5804 7.24349L12.1302 7.04357C13.9784 6.3715 16.0093 6.40373 17.8353 7.1341L18.1784 7.27138C19.3274 7.73097 20.199 8.69651 20.539 9.8864L21.8285 14.3996C21.9421 14.7975 22.1168 15.1753 22.3464 15.5195L22.8906 16.3359C23.5624 17.3436 23.5624 18.6564 22.8906 19.6641V19.6641C22.3342 20.4987 21.3975 21 20.3944 21H18M12 21L12.5149 23.0597C12.8 24.2 13.8246 25 15 25V25C16.1754 25 17.2 24.2 17.4851 23.0597L18 21M12 21H18" stroke="#FAFAFA" stroke-width="2"/>
</svg>
