<svg width="25" height="24" viewBox="0 0 25 24" fill="none" xmlns="http://www.w3.org/2000/svg">
<path d="M21 8.6V6.2C21 5.0799 21 4.51984 20.782 4.09202C20.5903 3.71569 20.2843 3.40973 19.908 3.21799C19.4802 3 18.9201 3 17.8 3H5.2C4.07989 3 3.51984 3 3.09202 3.21799C2.71569 3.40973 2.40973 3.71569 2.21799 4.09202C2 4.51984 2 5.07989 2 6.2V13.8C2 14.9201 2 15.4802 2.21799 15.908C2.40973 16.2843 2.71569 16.5903 3.09202 16.782C3.51984 17 4.07989 17 5.2 17H14.2143" stroke="#FAFAFA" stroke-width="2" stroke-linecap="round"/>
<path d="M6 13H11" stroke="#FAFAFA" stroke-width="2" stroke-linecap="round"/>
<path d="M6 7H15" stroke="#FAFAFA" stroke-width="2" stroke-linecap="round"/>
<circle cx="19.5" cy="14.5" r="2.5" stroke="#FAFAFA" stroke-width="2"/>
<path d="M24 22C24 22 22.875 20 19.5 20C16.125 20 15 22 15 22" stroke="#FAFAFA" stroke-width="2" stroke-linecap="round"/>
</svg>
