<svg width="24" height="24" viewBox="0 0 24 24" fill="none" xmlns="http://www.w3.org/2000/svg">
<path d="M15 22V16C15 15.4477 14.5523 15 14 15H10C9.44772 15 9 15.4477 9 16V22" stroke="#FAFAFA" stroke-width="2" stroke-linecap="round" stroke-linejoin="round"/>
<path d="M4 11V18C4 19.8856 4 20.8284 4.58579 21.4142C5.17157 22 6.11438 22 8 22H16C17.8856 22 18.8284 22 19.4142 21.4142C20 20.8284 20 19.8856 20 18V11" stroke="#FAFAFA" stroke-width="2"/>
<path d="M3.84677 3.52057C4.02705 2.79044 4.11719 2.42538 4.38878 2.21269C4.66038 2 5.0364 2 5.78846 2H18.2115C18.9636 2 19.3396 2 19.6112 2.21269C19.8828 2.42538 19.9729 2.79044 20.1532 3.52057L21.5427 9.14773C21.6799 9.70351 21.7485 9.9814 21.702 10.2044C21.6384 10.509 21.4366 10.7666 21.1561 10.9014C20.9508 11 20.6621 11 20.0845 11V11C19.3011 11 18.9094 11 18.5853 10.8852C18.1236 10.7216 17.738 10.3943 17.5016 9.96524C17.3357 9.66411 17.2726 9.28088 17.1464 8.51443V8.51443C17.1107 8.29779 17.0929 8.18947 17.0664 8.16593C17.0285 8.13226 16.9715 8.13226 16.9336 8.16593C16.9071 8.18947 16.8893 8.29779 16.8536 8.51443L16.7603 9.08138C16.7225 9.31104 16.7036 9.42587 16.6767 9.52467C16.4597 10.3228 15.7738 10.9051 14.951 10.9895C14.8491 11 14.7328 11 14.5 11V11C14.2672 11 14.1509 11 14.049 10.9895C13.2262 10.9051 12.5403 10.3228 12.3233 9.52467C12.2964 9.42587 12.2775 9.31104 12.2397 9.08138L12.1464 8.51443C12.1107 8.29779 12.0929 8.18947 12.0664 8.16593C12.0285 8.13226 11.9715 8.13226 11.9336 8.16593C11.9071 8.18947 11.8893 8.29779 11.8536 8.51443L11.7603 9.08138C11.7225 9.31104 11.7036 9.42587 11.6767 9.52467C11.4597 10.3228 10.7738 10.9051 9.95098 10.9895C9.84913 11 9.73276 11 9.5 11V11C9.26725 11 9.15087 11 9.04902 10.9895C8.22621 10.9051 7.54029 10.3228 7.3233 9.52467C7.29644 9.42587 7.27754 9.31104 7.23973 9.08138L7.14641 8.51443C7.11075 8.29779 7.09292 8.18947 7.06644 8.16593C7.02855 8.13226 6.97145 8.13226 6.93356 8.16593C6.90708 8.18947 6.88925 8.29779 6.85359 8.51443V8.51443C6.72743 9.28088 6.66434 9.66411 6.4984 9.96524C6.262 10.3943 5.87638 10.7216 5.41467 10.8852C5.09058 11 4.69887 11 3.91545 11V11C3.33794 11 3.04919 11 2.84389 10.9014C2.56341 10.7666 2.36164 10.509 2.29805 10.2044C2.25151 9.9814 2.32012 9.70351 2.45735 9.14773L3.84677 3.52057Z" stroke="#FAFAFA" stroke-width="2"/>
</svg>
