<svg width="24" height="24" viewBox="0 0 24 24" fill="none" xmlns="http://www.w3.org/2000/svg">
<path d="M3.29 6.96999L7.5 8.99999M20.71 6.96999L16.5 8.99999M20.7 17H3.3M21 8.00699V15.993C20.9999 16.3451 20.9068 16.691 20.7302 16.9957C20.5535 17.3004 20.2996 17.553 19.994 17.728L12.994 21.735C12.6914 21.9083 12.3487 21.9995 12 21.9995C11.6513 21.9995 11.3086 21.9083 11.006 21.735L4.006 17.728C3.70041 17.553 3.44645 17.3004 3.26981 16.9957C3.09316 16.691 3.00009 16.3451 3 15.993V8.00699C3.00009 7.65483 3.09316 7.30893 3.26981 7.00428C3.44645 6.69962 3.70041 6.44701 4.006 6.27199L11.006 2.26499C11.3086 2.09167 11.6513 2.00049 12 2.00049C12.3487 2.00049 12.6914 2.09167 12.994 2.26499L19.994 6.27199C20.2996 6.44701 20.5535 6.69962 20.7302 7.00428C20.9068 7.30893 20.9999 7.65483 21 8.00699Z" stroke="#FF7B00" stroke-width="1.5" stroke-linecap="round" stroke-linejoin="round"/>
<path d="M11.76 2.02997L7.49995 8.99997L3.19995 16.84M12.24 2.02997C14.1046 4.98997 15.5246 7.3133 16.5 8.99997C17.4753 10.6866 18.9086 13.3 20.7999 16.84" stroke="#FF7B00" stroke-width="1.5" stroke-linecap="round" stroke-linejoin="round"/>
<path d="M12 17L7.5 9H16.5L12 17ZM12 17V22" stroke="#FF7B00" stroke-width="1.5" stroke-linecap="round" stroke-linejoin="round"/>
</svg>
