<svg width="24" height="24" viewBox="0 0 24 24" fill="none" xmlns="http://www.w3.org/2000/svg">
<path d="M18.3848 21V19C18.3848 17.9391 17.9633 16.9217 17.2132 16.1716C16.463 15.4214 15.4456 15 14.3848 15H7.38477C6.3239 15 5.30648 15.4214 4.55634 16.1716C3.80619 16.9217 3.38477 17.9391 3.38477 19V21" stroke="#FAFAFA" stroke-width="2" stroke-linecap="round" stroke-linejoin="round"/>
<path d="M10.8848 11C13.0939 11 14.8848 9.20914 14.8848 7C14.8848 4.79086 13.0939 3 10.8848 3C8.67563 3 6.88477 4.79086 6.88477 7C6.88477 9.20914 8.67563 11 10.8848 11Z" stroke="#FAFAFA" stroke-width="2" stroke-linecap="round" stroke-linejoin="round"/>
<path d="M17.2255 10.6808V12.3616H20.587" stroke="#FAFAFA" stroke-width="2" stroke-linecap="round" stroke-linejoin="round"/>
</svg>
