<svg width="24" height="24" viewBox="0 0 24 24" fill="none" xmlns="http://www.w3.org/2000/svg">
<path d="M15.8462 21.2336C14.6622 21.7273 13.3629 22 12 22C6.47715 22 2 17.5228 2 12C2 6.47715 6.47715 2 12 2C17.5228 2 22 6.47715 22 12C22 18.1538 17.3846 17.3846 17.3846 14.3077V8M17.3846 12C17.3846 14.9738 14.9738 17.3846 12 17.3846C9.02616 17.3846 6.61538 14.9738 6.61538 12C6.61538 9.02616 9.02616 6.61538 12 6.61538C14.9738 6.61538 17.3846 9.02616 17.3846 12Z" stroke="#FAFAFA" stroke-width="2" stroke-linecap="round" stroke-linejoin="round"/>
</svg>
