<svg width="25" height="24" viewBox="0 0 25 24" fill="none" xmlns="http://www.w3.org/2000/svg">
<circle cx="13" cy="7" r="3" stroke="#FAFAFA" stroke-width="2" stroke-linecap="round"/>
<circle cx="7" cy="5" r="2" stroke="#FAFAFA" stroke-width="2" stroke-linecap="round"/>
<circle cx="19" cy="5" r="2" stroke="#FAFAFA" stroke-width="2" stroke-linecap="round"/>
<path d="M13 13C18.342 13 19.6073 17.0767 19.907 19.0079C19.9917 19.5536 19.5523 20 19 20H7C6.44772 20 6.00833 19.5536 6.09302 19.0079C6.39273 17.0767 7.65804 13 13 13Z" stroke="#FAFAFA" stroke-width="2" stroke-linecap="round"/>
<path d="M23.8117 16.8206L22.8357 17.0382L22.8357 17.0382L23.8117 16.8206ZM15.4648 13.0923L14.6858 12.4652L13.7821 13.588L15.1502 14.0415L15.4648 13.0923ZM19.7162 17.9068L18.7556 18.1847L18.9645 18.9068H19.7162V17.9068ZM18.8148 12.4253C20.0739 12.4253 20.9462 13.0665 21.5973 14.0021C22.2673 14.9649 22.6416 16.1676 22.8357 17.0382L24.7877 16.603C24.5704 15.6281 24.1251 14.1332 23.2389 12.8597C22.3338 11.559 20.9135 10.4253 18.8148 10.4253V12.4253ZM16.2438 13.7193C16.867 12.9451 17.6781 12.4253 18.8148 12.4253V10.4253C16.941 10.4253 15.5977 11.3324 14.6858 12.4652L16.2438 13.7193ZM15.1502 14.0415C17.2836 14.7485 18.2833 16.5528 18.7556 18.1847L20.6768 17.6288C20.1215 15.7099 18.8163 13.1496 15.7794 12.143L15.1502 14.0415ZM22.895 16.9068H19.7162V18.9068H22.895V16.9068ZM22.8357 17.0382C22.8333 17.0275 22.8319 17.0063 22.8385 16.9811C22.8446 16.9575 22.8553 16.9399 22.865 16.9285C22.8843 16.9061 22.9003 16.9068 22.895 16.9068V18.9068C24.0529 18.9068 25.0713 17.8751 24.7877 16.603L22.8357 17.0382Z" fill="#FAFAFA"/>
<path d="M10.6786 13.0466L10.9714 14.0028L12.6049 13.5026L11.3689 12.3232L10.6786 13.0466ZM2.00342 16.8211L2.97946 17.0387L2.00342 16.8211ZM2.92009 17.9073L2.9201 16.9073L2.9201 16.9073L2.92009 17.9073ZM6.28378 17.9073L6.28377 18.9073L7.03547 18.9073L7.24438 18.1852L6.28378 17.9073ZM7.0003 12.4258C8.14476 12.4258 9.13266 12.9537 9.98822 13.7701L11.3689 12.3232C10.2746 11.279 8.81765 10.4258 7.0003 10.4258V12.4258ZM2.97946 17.0387C3.17356 16.1681 3.54784 14.9654 4.21784 14.0026C4.86891 13.0669 5.74127 12.4258 7.0003 12.4258V10.4258C4.90167 10.4258 3.4813 11.5595 2.5762 12.8602C1.69004 14.1336 1.24472 15.6286 1.02738 16.6035L2.97946 17.0387ZM2.9201 16.9073C2.91483 16.9073 2.9308 16.9066 2.95009 16.929C2.95985 16.9404 2.97049 16.958 2.97666 16.9816C2.98324 17.0068 2.98185 17.028 2.97946 17.0387L1.02738 16.6035C0.743777 17.8756 1.76216 18.9073 2.92008 18.9073L2.9201 16.9073ZM6.28379 16.9073L2.9201 16.9073L2.92008 18.9073L6.28377 18.9073L6.28379 16.9073ZM7.24438 18.1852C7.72506 16.5238 8.75187 14.6824 10.9714 14.0028L10.3858 12.0905C7.23269 13.0559 5.88869 15.6748 5.32317 17.6294L7.24438 18.1852Z" fill="#FAFAFA"/>
</svg>
